<svg xmlns="http://www.w3.org/2000/svg" viewBox="0 0 400 400"><defs><style>.cls-1{fill:none;stroke:#eaeaea;stroke-miterlimit:10;stroke-width:0.5px;stroke-dasharray:0.5 0.5 0.5 0.5;}.cls-2{fill:#e2e2e2;}.cls-3{fill:#fff;}.cls-4{fill:#c6c6c6;}</style></defs><title>默认头像-男</title><g id="男头像03"><g id="外框"><ellipse class="cls-1" cx="200.18" cy="200.02" rx="194.98" ry="195"/></g><ellipse class="cls-2" cx="200.22" cy="200.03" rx="194.98" ry="195"/><path class="cls-3" d="M274.65,231.37C290.32,225,294.8,209.73,291.81,203s-4.1-79.47-15.3-93.28-31-24.63-78.35-24.25-72.75,14.18-79.09,31-11.94,66.41-11.57,87.31,11.19,28.73,16,28.73c1.65,29.68,36.68,44.58,55,50.37v23.28c-14.29,2.93-28.14,9.2-39.36,20.75-13.25,13.64-19.81,41.87-21.46,49.9a195.32,195.32,0,0,0,166.09-.58c-2.06-8.74-9.24-36.05-21.26-49.32-9.32-10.29-25.5-17.59-42.34-20.89V283.53C267.7,271.63,273.61,239.7,274.65,231.37Z"/><path class="cls-4" d="M119.83,218.31s-27.23-24.63-25.37-74.62c-.09-24.63,16.42-43.28,16.42-43.28s-3.25-53.73,89.22-54.1,102.17,76.49,102.54,91.41-1.12,55.22-23.88,78.35c0,0,0-27.61-6.34-35.82s-6.72-34.33-8.58-38.8c-.65-1.57-2.68-3.16-5-4.56a33.66,33.66,0,0,0-17.13-4.61c-10.69,0-30.76-.1-43.15,0-17.51.19-53,0-53,0s-13.8.56-17.16,11.38S119.45,201.15,119.83,218.31Z"/></g></svg>