<svg xmlns="http://www.w3.org/2000/svg" viewBox="0 0 400 400"><defs><style>.cls-1{fill:none;stroke:#eaeaea;stroke-miterlimit:10;stroke-width:0.5px;stroke-dasharray:0.5 0.5 0.5 0.5;}.cls-2{fill:#e2e2e2;}.cls-3{fill:#c6c6c6;}.cls-4{fill:#fff;}</style></defs><title>默认头像-男</title><g id="女头像03"><g id="外框"><ellipse class="cls-1" cx="200.73" cy="199.96" rx="194.97" ry="194.96"/></g><ellipse class="cls-2" cx="200.79" cy="200.04" rx="194.97" ry="194.96"/><path class="cls-3" d="M199.12,303.69c-37.39-1.89-104-.23-129.89-24.09C73,273.72,85,268.11,85.38,214S95.66,45,200.06,44.24,310.86,148,311.67,213.24c-.79,27,5.21,56.87,14,65.68C298.38,302.9,237.62,303.36,199.12,303.69Z"/><path class="cls-4" d="M272.42,227.66c15.62-4.81,23.23-11.61,22.43-20.42s-11.21-5.61-14-8S270.41,180,268.41,172.8c-56.47-7.21-103.73-49.26-107.33-52.06-12,40.32-37.33,69.56-44.52,77.28a5.55,5.55,0,0,1-4.32,1.78c-3.81-.18-10.83.22-10.83,7.45,0,13.6,20,18.82,23.23,18.82,13.8,30.19,42,41.8,56.89,45.95v24.91c-17.24,2.6-34.22,9.4-47.68,23.25-14.25,14.67-21.3,44.47-23,52.85a195.25,195.25,0,0,0,177.88,1.08c-2.28-10.29-9.72-39.94-22.4-53.93-11.11-12.25-31.27-20.55-51.43-23.43V272C255.56,261.24,269,233.72,272.42,227.66Z"/></g></svg>